# xmcd
#
# Track frame offsets:
#	150
#	18225
#	38650
#	57200
#	76775
#	97675
#	116370
#	135175
#	157025
#	178137
#	199075
#	218700
#	240425
#	262050
#	281212
#
# Disc length: 4008 seconds
#
# Revision: 0
# Processed by: cddbd v1.4PL0 Copyright (c) Steve Scherf et al.
# Submitted via: EasyCDDAExtractor 5.0.2.1
#
DISCID=bf0fa60f
DTITLE=劉德華 - 在乎你
DYEAR=1996
DGENRE=Pop
TTITLE0=倒轉地球
TTITLE1=一個人睡
TTITLE2=半生愛女人
TTITLE3=潮水
TTITLE4=推不開
TTITLE5=另一半
TTITLE6=同床
TTITLE7=寂寞(但你不知)
TTITLE8=不能溶化的冰
TTITLE9=絕對在乎你
TTITLE10=擁抱你
TTITLE11=灑
TTITLE12=隨風而去
TTITLE13=情深的一句
TTITLE14=真永遠
EXTD=
EXTT0=
EXTT1=
EXTT2=
EXTT3=
EXTT4=
EXTT5=
EXTT6=
EXTT7=
EXTT8=
EXTT9=
EXTT10=
EXTT11=
EXTT12=
EXTT13=
EXTT14=
PLAYORDER=
